<svg width="190" height="114" viewBox="0 0 190 114" fill="none" xmlns="http://www.w3.org/2000/svg">
<path d="M79.7793 7.03587H45.4341V42.1985H79.7793V7.03587Z" fill="#E2E6E9"/>
<path d="M122.717 88.9652H50.2188V113.826H122.717V88.9652Z" fill="#E2E6E9"/>
<path d="M122.717 50.6587H50.2188V78.0206H122.717V50.6587Z" fill="#E2E6E9"/>
<path d="M122.717 15.0098H85.9131V42.3717H122.717V15.0098Z" fill="#E2E6E9"/>
<path d="M126.408 113.999H45.2607V6.86182H126.408V113.999ZM45.6079 113.651H126.06V7.20909H45.6087L45.6079 113.651Z" fill="#A1AAB1"/>
<path d="M109.373 113.998H62.4487V7.0183H109.373V113.998ZM62.8 113.65H109.025V7.36641H62.8V113.65Z" fill="#A1AAB1"/>
<path d="M126.408 78.1946H45.2607V42.1985H126.408V78.1946ZM45.6079 77.8465H126.06V42.5466H45.6087L45.6079 77.8465Z" fill="#A1AAB1"/>
<path d="M62.6263 47.5324C65.4747 47.5324 67.7838 45.2223 67.7838 42.3726C67.7838 39.5229 65.4747 37.2128 62.6263 37.2128C59.7779 37.2128 57.4688 39.5229 57.4688 42.3726C57.4688 45.2223 59.7779 47.5324 62.6263 47.5324Z" fill="#005F87"/>
<path d="M109.2 12.8216C112.048 12.8216 114.357 10.5115 114.357 7.6618C114.357 4.81215 112.048 2.50204 109.2 2.50204C106.351 2.50204 104.042 4.81215 104.042 7.6618C104.042 10.5115 106.351 12.8216 109.2 12.8216Z" fill="#005F87"/>
<path d="M86.0081 7.19235H85.6602V113.826H86.0081V7.19235Z" fill="#A1AAB1"/>
<path d="M85.912 93.812C94.6295 93.812 101.696 86.742 101.696 78.0206C101.696 69.2993 94.6295 62.2292 85.912 62.2292C77.1944 62.2292 70.1274 69.2993 70.1274 78.0206C70.1274 86.742 77.1944 93.812 85.912 93.812Z" fill="#005F87"/>
<path d="M170.62 0H140.926V11.4141H170.62V0Z" fill="#E2E6E9"/>
<path d="M165.383 3.04933H146.16V3.9874H165.383V3.04933Z" fill="#F2F2F2"/>
<path d="M165.383 5.23842H146.16V6.17648H165.383V5.23842Z" fill="#F2F2F2"/>
<path d="M165.383 7.42667H146.16V8.36473H165.383V7.42667Z" fill="#F2F2F2"/>
<path d="M189.999 74.0667H160.305V85.4807H189.999V74.0667Z" fill="#E2E6E9"/>
<path d="M184.764 77.116H165.541V78.0541H184.764V77.116Z" fill="#F2F2F2"/>
<path d="M184.764 79.3043H165.541V80.2423H184.764V79.3043Z" fill="#F2F2F2"/>
<path d="M184.764 81.4933H165.541V82.4314H184.764V81.4933Z" fill="#F2F2F2"/>
<path d="M143.791 5.70686C125.248 6.56794 118.297 6.80991 114.553 6.95636C112.085 7.05259 110.904 6.55064 110.901 7.14227C110.897 7.73389 113.159 7.59921 113.584 7.95987C114.009 8.32054 114.23 5.02433 113.397 5.88624C112.564 6.74815 111.618 6.56573 110.9 7.14145" fill="#A1AAB1"/>
<path d="M143.791 5.70686C125.248 6.56794 118.297 6.80991 114.553 6.95636C112.085 7.05259 110.904 6.55064 110.901 7.14227C110.897 7.73389 113.159 7.59921 113.584 7.95987C114.009 8.32054 114.23 5.02433 113.397 5.88624C112.564 6.74815 111.618 6.56573 110.9 7.14145" stroke="#A1AAB1"/>
<path d="M29.6946 41.8253H0V53.2394H29.6946V41.8253Z" fill="#E2E6E9"/>
<path d="M24.4585 44.8746H5.23535V45.8127H24.4585V44.8746Z" fill="#F2F2F2"/>
<path d="M24.4585 47.0629H5.23535V48.0009H24.4585V47.0629Z" fill="#F2F2F2"/>
<path d="M24.4585 49.252H5.23535V50.1901H24.4585V49.252Z" fill="#F2F2F2"/>
<path d="M26.792 47.0219C45.3359 46.2656 52.2799 45.9015 56.0224 45.7205C58.4884 45.6016 59.6211 44.9987 59.6767 45.5876C59.7323 46.1765 57.4671 46.2393 57.0744 46.6356C56.6817 47.0318 56.1751 43.7681 57.0798 44.554C57.9846 45.34 58.9117 45.075 59.6766 45.5868" fill="#A1AAB1"/>
<path d="M26.792 47.0219C45.3359 46.2656 52.2799 45.9015 56.0224 45.7205C58.4884 45.6016 59.6211 44.9987 59.6767 45.5876C59.7323 46.1765 57.4671 46.2393 57.0744 46.6356C56.6817 47.0318 56.1751 43.7681 57.0798 44.554C57.9846 45.34 58.9117 45.075 59.6766 45.5868" stroke="#A1AAB1" stroke-width="0.999792"/>
<path d="M158.229 79.7727C124.223 80.6338 110.091 80.8758 103.222 81.0222C98.6973 81.1185 97.9178 80.6165 97.9111 81.2081C97.9045 81.7998 100.671 81.6651 101.447 82.0258C102.222 82.3864 102.632 79.0902 101.105 79.9521C99.5772 80.814 99.226 80.6316 97.9111 81.2073" fill="#A1AAB1"/>
<path d="M158.229 79.7727C124.223 80.6338 110.091 80.8758 103.222 81.0222C98.6973 81.1185 97.9178 80.6165 97.9111 81.2081C97.9045 81.7998 100.671 81.6651 101.447 82.0258C102.222 82.3864 102.632 79.0902 101.105 79.9521C99.5772 80.814 99.226 80.6316 97.9111 81.2073" stroke="#A1AAB1"/>
</svg>
